<?xml version="1.0" encoding="UTF-8" standalone="no"?>
<!DOCTYPE svg PUBLIC "-//W3C//DTD SVG 1.1//EN"
 "http://www.w3.org/Graphics/SVG/1.1/DTD/svg11.dtd">
<!-- Generated by graphviz version 9.0.0 (20230911.1827)
 -->
<!-- Pages: 1 -->
<svg width="1082pt" height="192pt"
 viewBox="0.00 0.00 1082.25 192.23" xmlns="http://www.w3.org/2000/svg" xmlns:xlink="http://www.w3.org/1999/xlink">
<g id="graph0" class="graph" transform="scale(1 1) rotate(0) translate(4 188.23)">
<polygon fill="white" stroke="none" points="-4,4 -4,-188.23 1078.25,-188.23 1078.25,4 -4,4"/>
<!-- Distance To Obstacle Up -->
<g id="node1" class="node">
<title>Distance To Obstacle Up</title>
<polygon fill="lightgray" stroke="black" points="147.09,-117.75 38.84,-117.75 38.84,-98.5 147.09,-98.5 147.09,-117.75"/>
<text text-anchor="middle" x="92.96" y="-105.2" font-family="Times New Roman,serif" font-size="9.00">Distance To Obstacle Up</text>
</g>
<!-- up -->
<g id="node9" class="node">
<title>up</title>
<ellipse fill="lightblue" stroke="black" cx="368.96" cy="-25.63" rx="18.21" ry="18.21"/>
<text text-anchor="middle" x="368.96" y="-22.71" font-family="Times New Roman,serif" font-size="9.00">up</text>
</g>
<!-- Distance To Obstacle Up&#45;&gt;up -->
<g id="edge1" class="edge">
<title>Distance To Obstacle Up&#45;&gt;up</title>
<path fill="none" stroke="red" stroke-width="0.65" d="M121.59,-98.09C132.63,-94.65 145.37,-90.72 156.96,-87.27 222.69,-67.67 300.25,-45.81 340.89,-34.45"/>
<polygon fill="red" stroke="red" stroke-width="0.65" points="341.7,-37.85 350.39,-31.79 339.82,-31.11 341.7,-37.85"/>
</g>
<!-- right -->
<g id="node10" class="node">
<title>right</title>
<ellipse fill="lightblue" stroke="black" cx="461.96" cy="-25.63" rx="22.98" ry="22.98"/>
<text text-anchor="middle" x="461.96" y="-22.71" font-family="Times New Roman,serif" font-size="9.00">right</text>
</g>
<!-- Distance To Obstacle Up&#45;&gt;right -->
<g id="edge2" class="edge">
<title>Distance To Obstacle Up&#45;&gt;right</title>
<path fill="none" stroke="green" stroke-width="0.24" d="M119.19,-98C130.67,-94.27 144.37,-90.15 156.96,-87.27 261.67,-63.28 291.97,-78.19 395.96,-51.27 407.75,-48.21 420.34,-43.81 431.34,-39.57"/>
<polygon fill="green" stroke="green" stroke-width="0.24" points="432.59,-42.84 440.59,-35.9 430.01,-36.34 432.59,-42.84"/>
</g>
<!-- down -->
<g id="node11" class="node">
<title>down</title>
<ellipse fill="lightblue" stroke="black" cx="542.96" cy="-25.63" rx="25.63" ry="25.63"/>
<text text-anchor="middle" x="542.96" y="-22.71" font-family="Times New Roman,serif" font-size="9.00">down</text>
</g>
<!-- Distance To Obstacle Up&#45;&gt;down -->
<g id="edge3" class="edge">
<title>Distance To Obstacle Up&#45;&gt;down</title>
<path fill="none" stroke="red" stroke-width="0.18" d="M118.2,-98.05C129.86,-94.18 143.97,-89.95 156.96,-87.27 304.48,-56.8 349.46,-93.78 493.96,-51.27 500.08,-49.47 506.34,-46.92 512.27,-44.15"/>
<polygon fill="red" stroke="red" stroke-width="0.18" points="513.6,-47.4 520.97,-39.8 510.46,-41.14 513.6,-47.4"/>
</g>
<!-- left -->
<g id="node12" class="node">
<title>left</title>
<ellipse fill="lightblue" stroke="black" cx="646.96" cy="-25.63" rx="19.8" ry="19.8"/>
<text text-anchor="middle" x="646.96" y="-22.71" font-family="Times New Roman,serif" font-size="9.00">left</text>
</g>
<!-- Distance To Obstacle Up&#45;&gt;left -->
<g id="edge4" class="edge">
<title>Distance To Obstacle Up&#45;&gt;left</title>
<path fill="none" stroke="red" stroke-width="0.78" d="M117.87,-98.02C129.58,-94.1 143.83,-89.83 156.96,-87.27 341.27,-51.23 394.46,-91.17 577.96,-51.27 591.71,-48.28 606.46,-43.27 618.78,-38.55"/>
<polygon fill="red" stroke="red" stroke-width="0.78" points="619.79,-41.92 627.79,-34.97 617.2,-35.41 619.79,-41.92"/>
</g>
<!-- Distance To Obstacle UpLeft -->
<g id="node2" class="node">
<title>Distance To Obstacle UpLeft</title>
<polygon fill="lightgray" stroke="black" points="996.59,-117.75 873.34,-117.75 873.34,-98.5 996.59,-98.5 996.59,-117.75"/>
<text text-anchor="middle" x="934.96" y="-105.2" font-family="Times New Roman,serif" font-size="9.00">Distance To Obstacle UpLeft</text>
</g>
<!-- Distance To Obstacle UpLeft&#45;&gt;right -->
<g id="edge5" class="edge">
<title>Distance To Obstacle UpLeft&#45;&gt;right</title>
<path fill="none" stroke="red" stroke-width="0.3" d="M907.3,-98.06C894.54,-94.2 879.11,-89.96 864.96,-87.27 708.31,-57.39 660.5,-97.79 507.96,-51.27 501.97,-49.44 495.85,-46.8 490.12,-43.92"/>
<polygon fill="red" stroke="red" stroke-width="0.3" points="491.79,-40.84 481.33,-39.17 488.46,-47 491.79,-40.84"/>
</g>
<!-- Distance To Obstacle UpLeft&#45;&gt;down -->
<g id="edge6" class="edge">
<title>Distance To Obstacle UpLeft&#45;&gt;down</title>
<path fill="none" stroke="red" stroke-width="0.18" d="M906.23,-98.05C893.66,-94.32 878.67,-90.2 864.96,-87.27 756.48,-64.08 725.95,-76.67 617.96,-51.27 604.14,-48.01 589.23,-43.36 576.36,-38.97"/>
<polygon fill="red" stroke="red" stroke-width="0.18" points="577.83,-35.78 567.23,-35.78 575.52,-42.39 577.83,-35.78"/>
</g>
<!-- Distance To Obstacle UpLeft&#45;&gt;left -->
<g id="edge7" class="edge">
<title>Distance To Obstacle UpLeft&#45;&gt;left</title>
<path fill="none" stroke="green" stroke-width="0.24" d="M903.26,-98.09C891.27,-94.69 877.49,-90.78 864.96,-87.27 797.32,-68.26 717.8,-46.22 676,-34.66"/>
<polygon fill="green" stroke="green" stroke-width="0.24" points="677.14,-31.34 666.57,-32.05 675.27,-38.09 677.14,-31.34"/>
</g>
<!-- Distance To Obstacle UpRight -->
<g id="node3" class="node">
<title>Distance To Obstacle UpRight</title>
<polygon fill="lightgray" stroke="black" points="586.84,-184.23 459.09,-184.23 459.09,-164.98 586.84,-164.98 586.84,-184.23"/>
<text text-anchor="middle" x="522.96" y="-171.68" font-family="Times New Roman,serif" font-size="9.00">Distance To Obstacle UpRight</text>
</g>
<!-- Distance To Obstacle UpRight&#45;&gt;up -->
<g id="edge8" class="edge">
<title>Distance To Obstacle UpRight&#45;&gt;up</title>
<path fill="none" stroke="green" stroke-width="0.3" d="M458.9,-172.69C329.4,-170.15 46.26,-160.98 16.96,-128.98 -76.25,-27.19 241.08,-24.41 340.27,-25.94"/>
<polygon fill="green" stroke="green" stroke-width="0.3" points="339.96,-29.44 350.02,-26.12 340.09,-22.44 339.96,-29.44"/>
</g>
<!-- Distance To Obstacle UpRight&#45;&gt;right -->
<g id="edge9" class="edge">
<title>Distance To Obstacle UpRight&#45;&gt;right</title>
<path fill="none" stroke="red" stroke-width="0.11" d="M458.61,-172.52C331.57,-169.69 58.33,-160.03 29.96,-128.98 17.46,-115.3 17.51,-101 29.96,-87.27 84.85,-26.71 316.34,-69.71 395.96,-51.27 407.94,-48.49 420.69,-44.1 431.76,-39.78"/>
<polygon fill="red" stroke="red" stroke-width="0.11" points="432.87,-43.11 440.83,-36.12 430.25,-36.62 432.87,-43.11"/>
</g>
<!-- Distance To Obstacle UpRight&#45;&gt;left -->
<g id="edge10" class="edge">
<title>Distance To Obstacle UpRight&#45;&gt;left</title>
<path fill="none" stroke="green" stroke-width="0.26" d="M587.13,-173.09C723.67,-171.33 1033.16,-163.51 1064.96,-128.98 1077.52,-115.35 1077.1,-101.29 1064.96,-87.27 1014.52,-28.97 764.97,-25.53 677.4,-26.17"/>
<polygon fill="green" stroke="green" stroke-width="0.26" points="677.44,-22.66 667.47,-26.26 677.5,-29.66 677.44,-22.66"/>
</g>
<!-- 196 -->
<g id="node13" class="node">
<title>196</title>
<ellipse fill="white" stroke="black" cx="1034.96" cy="-108.12" rx="20.86" ry="20.86"/>
<text text-anchor="middle" x="1034.96" y="-105.2" font-family="Times New Roman,serif" font-size="9.00">196</text>
</g>
<!-- Distance To Obstacle UpRight&#45;&gt;196 -->
<g id="edge31" class="edge">
<title>Distance To Obstacle UpRight&#45;&gt;196</title>
<path fill="none" stroke="green" stroke-width="0.22" d="M587.27,-171.67C700.5,-167.6 930.61,-156.17 1005.96,-128.98 1007.54,-128.41 1009.11,-127.74 1010.67,-126.98"/>
<polygon fill="green" stroke="green" stroke-width="0.22" points="1012.02,-130.24 1018.91,-122.2 1008.51,-124.19 1012.02,-130.24"/>
</g>
<!-- Distance To Obstacle Down -->
<g id="node4" class="node">
<title>Distance To Obstacle Down</title>
<polygon fill="lightgray" stroke="black" points="284.34,-117.75 165.59,-117.75 165.59,-98.5 284.34,-98.5 284.34,-117.75"/>
<text text-anchor="middle" x="224.96" y="-105.2" font-family="Times New Roman,serif" font-size="9.00">Distance To Obstacle Down</text>
</g>
<!-- Distance To Obstacle Down&#45;&gt;up -->
<g id="edge11" class="edge">
<title>Distance To Obstacle Down&#45;&gt;up</title>
<path fill="none" stroke="red" stroke-width="0.3" d="M241.2,-98.05C266.42,-83.95 315.16,-56.7 344.61,-40.24"/>
<polygon fill="red" stroke="red" stroke-width="0.3" points="346.02,-43.46 353.05,-35.53 342.61,-37.35 346.02,-43.46"/>
</g>
<!-- Distance To Obstacle Down&#45;&gt;right -->
<g id="edge12" class="edge">
<title>Distance To Obstacle Down&#45;&gt;right</title>
<path fill="none" stroke="green" stroke-width="0.24" d="M254.13,-98C288.27,-87.23 346.44,-68.59 395.96,-51.27 407.45,-47.25 419.98,-42.63 431.01,-38.49"/>
<polygon fill="green" stroke="green" stroke-width="0.24" points="432.18,-41.79 440.3,-34.98 429.71,-35.24 432.18,-41.79"/>
</g>
<!-- Distance To Obstacle Down&#45;&gt;down -->
<g id="edge13" class="edge">
<title>Distance To Obstacle Down&#45;&gt;down</title>
<path fill="none" stroke="red" stroke-width="0.5" d="M253.57,-98.03C265.65,-94.39 279.91,-90.33 292.96,-87.27 381.31,-66.51 407.86,-79.94 493.96,-51.27 499.87,-49.3 505.95,-46.73 511.73,-44"/>
<polygon fill="red" stroke="red" stroke-width="0.5" points="513.05,-47.25 520.43,-39.65 509.92,-40.99 513.05,-47.25"/>
</g>
<!-- Distance To Obstacle Down&#45;&gt;left -->
<g id="edge14" class="edge">
<title>Distance To Obstacle Down&#45;&gt;left</title>
<path fill="none" stroke="green" stroke-width="0.17" d="M252.5,-98C264.77,-94.22 279.48,-90.07 292.96,-87.27 417.96,-61.29 453.78,-80.9 577.96,-51.27 591.92,-47.93 606.98,-42.75 619.46,-38"/>
<polygon fill="green" stroke="green" stroke-width="0.17" points="620.57,-41.33 628.6,-34.42 618.01,-34.81 620.57,-41.33"/>
</g>
<!-- Distance To Obstacle DownLeft -->
<g id="node5" class="node">
<title>Distance To Obstacle DownLeft</title>
<polygon fill="lightgray" stroke="black" points="435.84,-117.75 302.09,-117.75 302.09,-98.5 435.84,-98.5 435.84,-117.75"/>
<text text-anchor="middle" x="368.96" y="-105.2" font-family="Times New Roman,serif" font-size="9.00">Distance To Obstacle DownLeft</text>
</g>
<!-- Distance To Obstacle DownLeft&#45;&gt;up -->
<g id="edge15" class="edge">
<title>Distance To Obstacle DownLeft&#45;&gt;up</title>
<path fill="none" stroke="red" stroke-width="0.13" d="M368.96,-98.2C368.96,-87.63 368.96,-69.5 368.96,-54.13"/>
<polygon fill="red" stroke="red" stroke-width="0.13" points="372.46,-54.27 368.96,-44.27 365.46,-54.27 372.46,-54.27"/>
</g>
<!-- Distance To Obstacle DownLeft&#45;&gt;right -->
<g id="edge16" class="edge">
<title>Distance To Obstacle DownLeft&#45;&gt;right</title>
<path fill="none" stroke="red" stroke-width="0.59" d="M379.27,-98.2C393.05,-86.28 417.93,-64.75 436.81,-48.4"/>
<polygon fill="red" stroke="red" stroke-width="0.59" points="439.06,-51.09 444.33,-41.89 434.48,-45.79 439.06,-51.09"/>
</g>
<!-- Distance To Obstacle DownLeft&#45;&gt;down -->
<g id="edge17" class="edge">
<title>Distance To Obstacle DownLeft&#45;&gt;down</title>
<path fill="none" stroke="green" stroke-width="0.2" d="M389.89,-98.12C414.82,-87.31 457.67,-68.49 493.96,-51.27 499.72,-48.53 505.82,-45.55 511.68,-42.62"/>
<polygon fill="green" stroke="green" stroke-width="0.2" points="512.99,-45.88 520.35,-38.27 509.85,-39.63 512.99,-45.88"/>
</g>
<!-- Distance To Obstacle DownLeft&#45;&gt;left -->
<g id="edge18" class="edge">
<title>Distance To Obstacle DownLeft&#45;&gt;left</title>
<path fill="none" stroke="green" stroke-width="0.18" d="M403.56,-98.04C458.51,-83.59 561.29,-56.46 577.96,-51.27 591.57,-47.03 606.48,-41.78 618.95,-37.22"/>
<polygon fill="green" stroke="green" stroke-width="0.18" points="619.94,-40.59 628.1,-33.83 617.51,-34.02 619.94,-40.59"/>
</g>
<!-- Distance To Obstacle DownRight -->
<g id="node6" class="node">
<title>Distance To Obstacle DownRight</title>
<polygon fill="lightgray" stroke="black" points="592.09,-117.75 453.84,-117.75 453.84,-98.5 592.09,-98.5 592.09,-117.75"/>
<text text-anchor="middle" x="522.96" y="-105.2" font-family="Times New Roman,serif" font-size="9.00">Distance To Obstacle DownRight</text>
</g>
<!-- Distance To Obstacle DownRight&#45;&gt;up -->
<g id="edge19" class="edge">
<title>Distance To Obstacle DownRight&#45;&gt;up</title>
<path fill="none" stroke="green" stroke-width="0.1" d="M505.6,-98.05C478.25,-83.75 425.04,-55.94 393.7,-39.56"/>
<polygon fill="green" stroke="green" stroke-width="0.1" points="395.72,-36.67 385.24,-35.14 392.48,-42.87 395.72,-36.67"/>
</g>
<!-- Distance To Obstacle DownRight&#45;&gt;right -->
<g id="edge20" class="edge">
<title>Distance To Obstacle DownRight&#45;&gt;right</title>
<path fill="none" stroke="red" stroke-width="0.23" d="M516.2,-98.2C507.91,-87.26 493.48,-68.23 481.59,-52.54"/>
<polygon fill="red" stroke="red" stroke-width="0.23" points="484.69,-50.83 475.86,-44.98 479.11,-55.06 484.69,-50.83"/>
</g>
<!-- Distance To Obstacle DownRight&#45;&gt;down -->
<g id="edge21" class="edge">
<title>Distance To Obstacle DownRight&#45;&gt;down</title>
<path fill="none" stroke="green" stroke-width="0.49" d="M525.18,-98.2C527.42,-89.2 531.01,-74.73 534.39,-61.14"/>
<polygon fill="green" stroke="green" stroke-width="0.49" points="537.71,-62.3 536.72,-51.76 530.91,-60.62 537.71,-62.3"/>
</g>
<!-- Distance To Obstacle DownRight&#45;&gt;left -->
<g id="edge22" class="edge">
<title>Distance To Obstacle DownRight&#45;&gt;left</title>
<path fill="none" stroke="red" stroke-width="0.2" d="M536.71,-98.2C557.35,-84.8 596.68,-59.27 622.35,-42.61"/>
<polygon fill="red" stroke="red" stroke-width="0.2" points="624.07,-45.66 630.56,-37.28 620.26,-39.79 624.07,-45.66"/>
</g>
<!-- Distance To Obstacle Right -->
<g id="node7" class="node">
<title>Distance To Obstacle Right</title>
<polygon fill="lightgray" stroke="black" points="725.84,-117.75 610.09,-117.75 610.09,-98.5 725.84,-98.5 725.84,-117.75"/>
<text text-anchor="middle" x="667.96" y="-105.2" font-family="Times New Roman,serif" font-size="9.00">Distance To Obstacle Right</text>
</g>
<!-- Distance To Obstacle Right&#45;&gt;up -->
<g id="edge23" class="edge">
<title>Distance To Obstacle Right&#45;&gt;up</title>
<path fill="none" stroke="red" stroke-width="0.12" d="M639.08,-98.01C627.32,-94.44 613.55,-90.45 600.96,-87.27 525.67,-68.21 504.26,-73.89 429.96,-51.27 418.17,-47.67 405.47,-42.73 394.74,-38.21"/>
<polygon fill="red" stroke="red" stroke-width="0.12" points="396.23,-35.05 385.67,-34.31 393.46,-41.48 396.23,-35.05"/>
</g>
<!-- Distance To Obstacle Right&#45;&gt;right -->
<g id="edge24" class="edge">
<title>Distance To Obstacle Right&#45;&gt;right</title>
<path fill="none" stroke="green" stroke-width="0.33" d="M637.64,-98.09C605.06,-88.03 552.01,-70.61 507.96,-51.27 502.33,-48.79 496.45,-45.9 490.85,-42.98"/>
<polygon fill="green" stroke="green" stroke-width="0.33" points="492.68,-39.99 482.21,-38.35 489.37,-46.16 492.68,-39.99"/>
</g>
<!-- Distance To Obstacle Right&#45;&gt;down -->
<g id="edge25" class="edge">
<title>Distance To Obstacle Right&#45;&gt;down</title>
<path fill="none" stroke="green" stroke-width="0.47" d="M654.11,-98.2C634.75,-85.74 599.08,-62.77 573.37,-46.21"/>
<polygon fill="green" stroke="green" stroke-width="0.47" points="575.29,-43.29 564.99,-40.82 571.5,-49.17 575.29,-43.29"/>
</g>
<!-- Distance To Obstacle Right&#45;&gt;left -->
<g id="edge26" class="edge">
<title>Distance To Obstacle Right&#45;&gt;left</title>
<path fill="none" stroke="green" stroke-width="0.28" d="M665.63,-98.2C662.93,-87.83 658.32,-70.18 654.37,-55.01"/>
<polygon fill="green" stroke="green" stroke-width="0.28" points="657.78,-54.22 651.87,-45.43 651,-55.99 657.78,-54.22"/>
</g>
<!-- Distance To Obstacle Left -->
<g id="node8" class="node">
<title>Distance To Obstacle Left</title>
<polygon fill="lightgray" stroke="black" points="855.59,-117.75 744.34,-117.75 744.34,-98.5 855.59,-98.5 855.59,-117.75"/>
<text text-anchor="middle" x="799.96" y="-105.2" font-family="Times New Roman,serif" font-size="9.00">Distance To Obstacle Left</text>
</g>
<!-- Distance To Obstacle Left&#45;&gt;up -->
<g id="edge27" class="edge">
<title>Distance To Obstacle Left&#45;&gt;up</title>
<path fill="none" stroke="red" stroke-width="0.33" d="M773.99,-98.02C762.21,-94.2 748.01,-90.01 734.96,-87.27 601.38,-59.21 562.19,-85.12 429.96,-51.27 418.06,-48.22 405.38,-43.38 394.69,-38.79"/>
<polygon fill="red" stroke="red" stroke-width="0.33" points="396.15,-35.61 385.59,-34.75 393.3,-42.01 396.15,-35.61"/>
</g>
<!-- Distance To Obstacle Left&#45;&gt;right -->
<g id="edge28" class="edge">
<title>Distance To Obstacle Left&#45;&gt;right</title>
<path fill="none" stroke="green" stroke-width="0.25" d="M773.31,-98.06C761.64,-94.34 747.72,-90.21 734.96,-87.27 635.43,-64.29 604.78,-83.83 507.96,-51.27 501.88,-49.22 495.63,-46.42 489.79,-43.44"/>
<polygon fill="green" stroke="green" stroke-width="0.25" points="491.8,-40.54 481.34,-38.86 488.47,-46.7 491.8,-40.54"/>
</g>
<!-- Distance To Obstacle Left&#45;&gt;down -->
<g id="edge29" class="edge">
<title>Distance To Obstacle Left&#45;&gt;down</title>
<path fill="none" stroke="green" stroke-width="0.25" d="M770.25,-98.04C722.53,-83.45 632.65,-55.93 617.96,-51.27 604.56,-47.01 589.86,-42.21 577.05,-37.98"/>
<polygon fill="green" stroke="green" stroke-width="0.25" points="578.19,-34.67 567.6,-34.86 575.99,-41.32 578.19,-34.67"/>
</g>
<!-- Distance To Obstacle Left&#45;&gt;left -->
<g id="edge30" class="edge">
<title>Distance To Obstacle Left&#45;&gt;left</title>
<path fill="none" stroke="green" stroke-width="0.4" d="M782.71,-98.05C756.08,-84.04 704.77,-57.04 673.42,-40.55"/>
<polygon fill="green" stroke="green" stroke-width="0.4" points="675.4,-37.64 664.92,-36.08 672.14,-43.83 675.4,-37.64"/>
</g>
<!-- 196&#45;&gt;down -->
<g id="edge32" class="edge">
<title>196&#45;&gt;down</title>
<path fill="none" stroke="green" stroke-width="0.12" d="M1019.2,-94.22C1015.11,-91.48 1010.55,-88.92 1005.96,-87.27 843.07,-28.45 787.52,-86.51 617.96,-51.27 604.06,-48.38 589.13,-43.79 576.28,-39.36"/>
<polygon fill="green" stroke="green" stroke-width="0.12" points="577.68,-36.14 567.08,-36.09 575.33,-42.73 577.68,-36.14"/>
</g>
</g>
</svg>
