<?xml version="1.0" encoding="UTF-8" standalone="no"?>
<!DOCTYPE svg PUBLIC "-//W3C//DTD SVG 1.1//EN"
 "http://www.w3.org/Graphics/SVG/1.1/DTD/svg11.dtd">
<!-- Generated by graphviz version 9.0.0 (20230911.1827)
 -->
<!-- Pages: 1 -->
<svg width="943pt" height="367pt"
 viewBox="0.00 0.00 942.75 366.77" xmlns="http://www.w3.org/2000/svg" xmlns:xlink="http://www.w3.org/1999/xlink">
<g id="graph0" class="graph" transform="scale(1 1) rotate(0) translate(4 362.77)">
<polygon fill="white" stroke="none" points="-4,4 -4,-362.77 938.75,-362.77 938.75,4 -4,4"/>
<!-- Distance To Obstacle Up -->
<g id="node1" class="node">
<title>Distance To Obstacle Up</title>
<polygon fill="lightgray" stroke="black" points="396.25,-205.02 288,-205.02 288,-185.77 396.25,-185.77 396.25,-205.02"/>
<text text-anchor="middle" x="342.12" y="-192.47" font-family="Times New Roman,serif" font-size="9.00">Distance To Obstacle Up</text>
</g>
<!-- up -->
<g id="node12" class="node">
<title>up</title>
<ellipse fill="lightblue" stroke="black" cx="246.12" cy="-109.72" rx="18.21" ry="18.21"/>
<text text-anchor="middle" x="246.12" y="-106.79" font-family="Times New Roman,serif" font-size="9.00">up</text>
</g>
<!-- Distance To Obstacle Up&#45;&gt;up -->
<g id="edge1" class="edge">
<title>Distance To Obstacle Up&#45;&gt;up</title>
<path fill="none" stroke="red" stroke-width="2.37" d="M331.85,-185.44C317.16,-172.63 289.73,-148.72 269.84,-131.39"/>
<polygon fill="red" stroke="red" stroke-width="2.37" points="272.25,-128.84 262.41,-124.91 267.65,-134.12 272.25,-128.84"/>
</g>
<!-- down -->
<g id="node14" class="node">
<title>down</title>
<ellipse fill="lightblue" stroke="black" cx="408.12" cy="-109.72" rx="25.63" ry="25.63"/>
<text text-anchor="middle" x="408.12" y="-106.79" font-family="Times New Roman,serif" font-size="9.00">down</text>
</g>
<!-- Distance To Obstacle Up&#45;&gt;down -->
<g id="edge6" class="edge">
<title>Distance To Obstacle Up&#45;&gt;down</title>
<path fill="none" stroke="green" stroke-width="1.32" d="M349.19,-185.44C357.81,-174.51 372.8,-155.5 385.5,-139.39"/>
<polygon fill="green" stroke="green" stroke-width="1.32" points="387.97,-141.92 391.42,-131.9 382.47,-137.58 387.97,-141.92"/>
</g>
<!-- Distance To Obstacle UpLeft -->
<g id="node2" class="node">
<title>Distance To Obstacle UpLeft</title>
<polygon fill="lightgray" stroke="black" points="409.75,-358.77 286.5,-358.77 286.5,-339.52 409.75,-339.52 409.75,-358.77"/>
<text text-anchor="middle" x="348.12" y="-346.22" font-family="Times New Roman,serif" font-size="9.00">Distance To Obstacle UpLeft</text>
</g>
<!-- Distance To Obstacle UpRight -->
<g id="node3" class="node">
<title>Distance To Obstacle UpRight</title>
<polygon fill="lightgray" stroke="black" points="651,-289.1 523.25,-289.1 523.25,-269.85 651,-269.85 651,-289.1"/>
<text text-anchor="middle" x="587.12" y="-276.55" font-family="Times New Roman,serif" font-size="9.00">Distance To Obstacle UpRight</text>
</g>
<!-- right -->
<g id="node13" class="node">
<title>right</title>
<ellipse fill="lightblue" stroke="black" cx="736.12" cy="-109.72" rx="22.98" ry="22.98"/>
<text text-anchor="middle" x="736.12" y="-106.79" font-family="Times New Roman,serif" font-size="9.00">right</text>
</g>
<!-- Distance To Obstacle UpRight&#45;&gt;right -->
<g id="edge7" class="edge">
<title>Distance To Obstacle UpRight&#45;&gt;right</title>
<path fill="none" stroke="red" stroke-width="0.23" d="M651.27,-276.92C694.15,-272.13 747.72,-258.07 776.12,-219.43 794.91,-193.89 775.39,-158.58 757.62,-135.22"/>
<polygon fill="red" stroke="red" stroke-width="0.23" points="760.41,-133.11 751.45,-127.47 754.94,-137.47 760.41,-133.11"/>
</g>
<!-- Distance To Obstacle UpRight&#45;&gt;down -->
<g id="edge19" class="edge">
<title>Distance To Obstacle UpRight&#45;&gt;down</title>
<path fill="none" stroke="green" stroke-width="0.48" d="M585.65,-269.49C581.9,-249.38 570.26,-200.26 542.12,-171.35 515.12,-143.6 473.1,-127.45 443.32,-118.9"/>
<polygon fill="green" stroke="green" stroke-width="0.48" points="444.62,-115.62 434.05,-116.37 442.78,-122.38 444.62,-115.62"/>
</g>
<!-- 6601 -->
<g id="node17" class="node">
<title>6601</title>
<ellipse fill="white" stroke="black" cx="246.12" cy="-195.39" rx="24.04" ry="24.04"/>
<text text-anchor="middle" x="246.12" y="-192.47" font-family="Times New Roman,serif" font-size="9.00">6601</text>
</g>
<!-- Distance To Obstacle UpRight&#45;&gt;6601 -->
<g id="edge22" class="edge">
<title>Distance To Obstacle UpRight&#45;&gt;6601</title>
<path fill="none" stroke="red" stroke-width="0.32" d="M522.93,-274.03C459,-267.81 359.13,-253.21 279.12,-219.43 277.09,-218.57 275.04,-217.57 273.03,-216.48"/>
<polygon fill="red" stroke="red" stroke-width="0.32" points="275.29,-213.75 264.93,-211.5 271.62,-219.72 275.29,-213.75"/>
</g>
<!-- 6367 -->
<g id="node22" class="node">
<title>6367</title>
<ellipse fill="white" stroke="black" cx="613.12" cy="-195.39" rx="24.04" ry="24.04"/>
<text text-anchor="middle" x="613.12" y="-192.47" font-family="Times New Roman,serif" font-size="9.00">6367</text>
</g>
<!-- Distance To Obstacle UpRight&#45;&gt;6367 -->
<g id="edge16" class="edge">
<title>Distance To Obstacle UpRight&#45;&gt;6367</title>
<path fill="none" stroke="red" stroke-width="0.23" d="M590.01,-269.38C593.12,-259.54 598.27,-243.3 602.91,-228.63"/>
<polygon fill="red" stroke="red" stroke-width="0.23" points="606.23,-229.76 605.91,-219.17 599.55,-227.64 606.23,-229.76"/>
</g>
<!-- Distance To Obstacle Down -->
<g id="node4" class="node">
<title>Distance To Obstacle Down</title>
<polygon fill="lightgray" stroke="black" points="533.5,-205.02 414.75,-205.02 414.75,-185.77 533.5,-185.77 533.5,-205.02"/>
<text text-anchor="middle" x="474.12" y="-192.47" font-family="Times New Roman,serif" font-size="9.00">Distance To Obstacle Down</text>
</g>
<!-- Distance To Obstacle Down&#45;&gt;down -->
<g id="edge4" class="edge">
<title>Distance To Obstacle Down&#45;&gt;down</title>
<path fill="none" stroke="red" stroke-width="1.27" d="M467.06,-185.44C458.44,-174.51 443.45,-155.5 430.75,-139.39"/>
<polygon fill="red" stroke="red" stroke-width="1.27" points="433.73,-137.52 424.79,-131.84 428.23,-141.86 433.73,-137.52"/>
</g>
<!-- Distance To Obstacle DownLeft -->
<g id="node5" class="node">
<title>Distance To Obstacle DownLeft</title>
<polygon fill="lightgray" stroke="black" points="562,-358.77 428.25,-358.77 428.25,-339.52 562,-339.52 562,-358.77"/>
<text text-anchor="middle" x="495.12" y="-346.22" font-family="Times New Roman,serif" font-size="9.00">Distance To Obstacle DownLeft</text>
</g>
<!-- Distance To Obstacle DownRight -->
<g id="node6" class="node">
<title>Distance To Obstacle DownRight</title>
<polygon fill="lightgray" stroke="black" points="138.25,-205.02 0,-205.02 0,-185.77 138.25,-185.77 138.25,-205.02"/>
<text text-anchor="middle" x="69.12" y="-192.47" font-family="Times New Roman,serif" font-size="9.00">Distance To Obstacle DownRight</text>
</g>
<!-- Distance To Obstacle DownRight&#45;&gt;up -->
<g id="edge5" class="edge">
<title>Distance To Obstacle DownRight&#45;&gt;up</title>
<path fill="none" stroke="green" stroke-width="0.15" d="M88.4,-185.28C120.56,-170.07 185.14,-139.54 220.88,-122.65"/>
<polygon fill="green" stroke="green" stroke-width="0.15" points="221.98,-126 229.52,-118.57 218.98,-119.67 221.98,-126"/>
</g>
<!-- left -->
<g id="node15" class="node">
<title>left</title>
<ellipse fill="lightblue" stroke="black" cx="69.12" cy="-109.72" rx="19.8" ry="19.8"/>
<text text-anchor="middle" x="69.12" y="-106.79" font-family="Times New Roman,serif" font-size="9.00">left</text>
</g>
<!-- Distance To Obstacle DownRight&#45;&gt;left -->
<g id="edge2" class="edge">
<title>Distance To Obstacle DownRight&#45;&gt;left</title>
<path fill="none" stroke="green" stroke-width="0.14" d="M69.12,-185.44C69.12,-174.65 69.12,-155.97 69.12,-139.99"/>
<polygon fill="green" stroke="green" stroke-width="0.14" points="72.63,-140.2 69.13,-130.2 65.63,-140.2 72.63,-140.2"/>
</g>
<!-- 5159 -->
<g id="node16" class="node">
<title>5159</title>
<ellipse fill="white" stroke="black" cx="156.12" cy="-109.72" rx="24.04" ry="24.04"/>
<text text-anchor="middle" x="156.12" y="-106.79" font-family="Times New Roman,serif" font-size="9.00">5159</text>
</g>
<!-- Distance To Obstacle DownRight&#45;&gt;5159 -->
<g id="edge8" class="edge">
<title>Distance To Obstacle DownRight&#45;&gt;5159</title>
<path fill="none" stroke="green" stroke-width="0.56" d="M78.44,-185.44C90.98,-173.37 113.77,-151.45 131.44,-134.46"/>
<polygon fill="green" stroke="green" stroke-width="0.56" points="133.74,-137.1 138.52,-127.64 128.89,-132.05 133.74,-137.1"/>
</g>
<!-- Distance To Obstacle Right -->
<g id="node7" class="node">
<title>Distance To Obstacle Right</title>
<polygon fill="lightgray" stroke="black" points="268,-358.77 152.25,-358.77 152.25,-339.52 268,-339.52 268,-358.77"/>
<text text-anchor="middle" x="210.12" y="-346.22" font-family="Times New Roman,serif" font-size="9.00">Distance To Obstacle Right</text>
</g>
<!-- Distance To Obstacle Right&#45;&gt;6601 -->
<g id="edge20" class="edge">
<title>Distance To Obstacle Right&#45;&gt;6601</title>
<path fill="none" stroke="green" stroke-width="0.34" d="M212.27,-339.1C217.3,-317.9 230.05,-264.13 238.39,-228.98"/>
<polygon fill="green" stroke="green" stroke-width="0.34" points="241.7,-230.21 240.6,-219.67 234.89,-228.6 241.7,-230.21"/>
</g>
<!-- 5839 -->
<g id="node20" class="node">
<title>5839</title>
<ellipse fill="white" stroke="black" cx="184.12" cy="-279.47" rx="24.04" ry="24.04"/>
<text text-anchor="middle" x="184.12" y="-276.55" font-family="Times New Roman,serif" font-size="9.00">5839</text>
</g>
<!-- Distance To Obstacle Right&#45;&gt;5839 -->
<g id="edge12" class="edge">
<title>Distance To Obstacle Right&#45;&gt;5839</title>
<path fill="none" stroke="red" stroke-width="0.32" d="M206.73,-339.29C204.04,-332.31 200.12,-322.11 196.3,-312.16"/>
<polygon fill="red" stroke="red" stroke-width="0.32" points="199.59,-310.96 192.73,-302.88 193.05,-313.47 199.59,-310.96"/>
</g>
<!-- Distance To Obstacle Left -->
<g id="node8" class="node">
<title>Distance To Obstacle Left</title>
<polygon fill="lightgray" stroke="black" points="934.75,-205.02 823.5,-205.02 823.5,-185.77 934.75,-185.77 934.75,-205.02"/>
<text text-anchor="middle" x="879.12" y="-192.47" font-family="Times New Roman,serif" font-size="9.00">Distance To Obstacle Left</text>
</g>
<!-- 5386 -->
<g id="node18" class="node">
<title>5386</title>
<ellipse fill="white" stroke="black" cx="827.12" cy="-24.04" rx="24.04" ry="24.04"/>
<text text-anchor="middle" x="827.12" y="-21.12" font-family="Times New Roman,serif" font-size="9.00">5386</text>
</g>
<!-- Distance To Obstacle Left&#45;&gt;5386 -->
<g id="edge9" class="edge">
<title>Distance To Obstacle Left&#45;&gt;5386</title>
<path fill="none" stroke="green" stroke-width="0.33" d="M878.62,-185.56C877.31,-166.51 872.96,-120.36 860.12,-84.08 856.42,-73.62 850.96,-62.84 845.53,-53.4"/>
<polygon fill="green" stroke="green" stroke-width="0.33" points="848.59,-51.68 840.45,-44.9 842.58,-55.27 848.59,-51.68"/>
</g>
<!-- 6029 -->
<g id="node19" class="node">
<title>6029</title>
<ellipse fill="white" stroke="black" cx="827.12" cy="-109.72" rx="24.04" ry="24.04"/>
<text text-anchor="middle" x="827.12" y="-106.79" font-family="Times New Roman,serif" font-size="9.00">6029</text>
</g>
<!-- Distance To Obstacle Left&#45;&gt;6029 -->
<g id="edge14" class="edge">
<title>Distance To Obstacle Left&#45;&gt;6029</title>
<path fill="none" stroke="green" stroke-width="0.28" d="M873.56,-185.44C866.75,-174.48 854.89,-155.4 844.86,-139.26"/>
<polygon fill="green" stroke="green" stroke-width="0.28" points="848,-137.67 839.75,-131.03 842.05,-141.37 848,-137.67"/>
</g>
<!-- Health -->
<g id="node9" class="node">
<title>Health</title>
<polygon fill="lightgray" stroke="black" points="620.12,-358.77 580.12,-358.77 580.12,-339.52 620.12,-339.52 620.12,-358.77"/>
<text text-anchor="middle" x="600.12" y="-346.22" font-family="Times New Roman,serif" font-size="9.00">Health</text>
</g>
<!-- Vertical Distance To Food -->
<g id="node10" class="node">
<title>Vertical Distance To Food</title>
<polygon fill="lightgray" stroke="black" points="766.75,-205.02 655.5,-205.02 655.5,-185.77 766.75,-185.77 766.75,-205.02"/>
<text text-anchor="middle" x="711.12" y="-192.47" font-family="Times New Roman,serif" font-size="9.00">Vertical Distance To Food</text>
</g>
<!-- Vertical Distance To Food&#45;&gt;right -->
<g id="edge3" class="edge">
<title>Vertical Distance To Food&#45;&gt;right</title>
<path fill="none" stroke="green" stroke-width="1.58" d="M713.8,-185.44C716.78,-175.46 721.78,-158.73 726.29,-143.63"/>
<polygon fill="green" stroke="green" stroke-width="1.58" points="729.56,-144.9 729.07,-134.32 722.86,-142.9 729.56,-144.9"/>
</g>
<!-- Horizontal Distance To Food -->
<g id="node11" class="node">
<title>Horizontal Distance To Food</title>
<polygon fill="lightgray" stroke="black" points="760.38,-358.77 637.88,-358.77 637.88,-339.52 760.38,-339.52 760.38,-358.77"/>
<text text-anchor="middle" x="699.12" y="-346.22" font-family="Times New Roman,serif" font-size="9.00">Horizontal Distance To Food</text>
</g>
<!-- right&#45;&gt;5386 -->
<g id="edge10" class="edge">
<title>right&#45;&gt;5386</title>
<path fill="none" stroke="green" stroke-width="0.27" d="M752.82,-93.37C766.66,-80.64 786.55,-62.35 802.27,-47.89"/>
<polygon fill="green" stroke="green" stroke-width="0.27" points="804.32,-50.77 809.31,-41.42 799.58,-45.61 804.32,-50.77"/>
</g>
<!-- 6601&#45;&gt;up -->
<g id="edge21" class="edge">
<title>6601&#45;&gt;up</title>
<path fill="none" stroke="green" stroke-width="0.27" d="M246.12,-171.08C246.12,-161.03 246.12,-149.2 246.12,-138.68"/>
<polygon fill="green" stroke="green" stroke-width="0.27" points="249.63,-138.73 246.13,-128.73 242.63,-138.73 249.63,-138.73"/>
</g>
<!-- 6029&#45;&gt;5386 -->
<g id="edge15" class="edge">
<title>6029&#45;&gt;5386</title>
<path fill="none" stroke="green" stroke-width="0.29" d="M827.12,-85.41C827.12,-77.14 827.12,-67.65 827.12,-58.69"/>
<polygon fill="green" stroke="green" stroke-width="0.29" points="830.63,-58.95 827.13,-48.95 823.63,-58.95 830.63,-58.95"/>
</g>
<!-- 5524 -->
<g id="node21" class="node">
<title>5524</title>
<ellipse fill="white" stroke="black" cx="180.12" cy="-195.39" rx="24.04" ry="24.04"/>
<text text-anchor="middle" x="180.12" y="-192.47" font-family="Times New Roman,serif" font-size="9.00">5524</text>
</g>
<!-- 5839&#45;&gt;5524 -->
<g id="edge13" class="edge">
<title>5839&#45;&gt;5524</title>
<path fill="none" stroke="green" stroke-width="0.38" d="M182.99,-255.17C182.61,-247.37 182.18,-238.52 181.77,-230.09"/>
<polygon fill="green" stroke="green" stroke-width="0.38" points="185.27,-230.15 181.29,-220.33 178.28,-230.49 185.27,-230.15"/>
</g>
<!-- 5524&#45;&gt;down -->
<g id="edge18" class="edge">
<title>5524&#45;&gt;down</title>
<path fill="none" stroke="green" stroke-width="0.22" d="M198.7,-179.94C203.25,-176.82 208.23,-173.75 213.12,-171.35 266.17,-145.36 332.77,-127.52 372.81,-118.23"/>
<polygon fill="green" stroke="green" stroke-width="0.22" points="373.57,-121.64 382.55,-116.01 372.02,-114.82 373.57,-121.64"/>
</g>
<!-- 5524&#45;&gt;5159 -->
<g id="edge11" class="edge">
<title>5524&#45;&gt;5159</title>
<path fill="none" stroke="red" stroke-width="0.5" d="M173.69,-171.97C171.16,-163.15 168.21,-152.86 165.46,-143.25"/>
<polygon fill="red" stroke="red" stroke-width="0.5" points="168.9,-142.57 162.78,-133.92 162.17,-144.5 168.9,-142.57"/>
</g>
<!-- 6367&#45;&gt;right -->
<g id="edge17" class="edge">
<title>6367&#45;&gt;right</title>
<path fill="none" stroke="red" stroke-width="0.66" d="M632.63,-180.69C637.06,-177.6 641.75,-174.35 646.12,-171.35 666.9,-157.1 690.52,-141.2 708.35,-129.25"/>
<polygon fill="red" stroke="red" stroke-width="0.66" points="709.9,-132.43 716.27,-123.96 706.01,-126.61 709.9,-132.43"/>
</g>
</g>
</svg>
