<?xml version="1.0" encoding="UTF-8" standalone="no"?>
<!DOCTYPE svg PUBLIC "-//W3C//DTD SVG 1.1//EN"
 "http://www.w3.org/Graphics/SVG/1.1/DTD/svg11.dtd">
<!-- Generated by graphviz version 9.0.0 (20230911.1827)
 -->
<!-- Pages: 1 -->
<svg width="2085pt" height="515pt"
 viewBox="0.00 0.00 2085.35 514.68" xmlns="http://www.w3.org/2000/svg" xmlns:xlink="http://www.w3.org/1999/xlink">
<g id="graph0" class="graph" transform="scale(1 1) rotate(0) translate(4 510.68)">
<polygon fill="white" stroke="none" points="-4,4 -4,-510.68 2081.35,-510.68 2081.35,4 -4,4"/>
<!-- Distance To Obstacle Up -->
<g id="node1" class="node">
<title>Distance To Obstacle Up</title>
<polygon fill="lightgray" stroke="black" points="108.25,-489.08 0,-489.08 0,-469.83 108.25,-469.83 108.25,-489.08"/>
<text text-anchor="middle" x="54.12" y="-476.53" font-family="Times New Roman,serif" font-size="9.00">Distance To Obstacle Up</text>
</g>
<!-- up -->
<g id="node15" class="node">
<title>up</title>
<ellipse fill="lightblue" stroke="black" cx="115.12" cy="-389.01" rx="18.21" ry="18.21"/>
<text text-anchor="middle" x="115.12" y="-386.09" font-family="Times New Roman,serif" font-size="9.00">up</text>
</g>
<!-- Distance To Obstacle Up&#45;&gt;up -->
<g id="edge2" class="edge">
<title>Distance To Obstacle Up&#45;&gt;up</title>
<path fill="none" stroke="red" stroke-width="1.48" d="M60.2,-469.66C68.96,-456.94 85.5,-432.97 98.15,-414.63"/>
<polygon fill="red" stroke="red" stroke-width="1.48" points="100.99,-416.68 103.78,-406.46 95.23,-412.7 100.99,-416.68"/>
</g>
<!-- Distance To Obstacle UpLeft -->
<g id="node2" class="node">
<title>Distance To Obstacle UpLeft</title>
<polygon fill="lightgray" stroke="black" points="249.75,-489.08 126.5,-489.08 126.5,-469.83 249.75,-469.83 249.75,-489.08"/>
<text text-anchor="middle" x="188.12" y="-476.53" font-family="Times New Roman,serif" font-size="9.00">Distance To Obstacle UpLeft</text>
</g>
<!-- Distance To Obstacle UpLeft&#45;&gt;up -->
<g id="edge14" class="edge">
<title>Distance To Obstacle UpLeft&#45;&gt;up</title>
<path fill="none" stroke="green" stroke-width="0.17" d="M180.86,-469.66C169.74,-456.18 148.17,-430.05 132.77,-411.39"/>
<polygon fill="green" stroke="green" stroke-width="0.17" points="135.63,-409.35 126.56,-403.87 130.23,-413.81 135.63,-409.35"/>
</g>
<!-- right -->
<g id="node16" class="node">
<title>right</title>
<ellipse fill="lightblue" stroke="black" cx="211.12" cy="-389.01" rx="22.98" ry="22.98"/>
<text text-anchor="middle" x="211.12" y="-386.09" font-family="Times New Roman,serif" font-size="9.00">right</text>
</g>
<!-- Distance To Obstacle UpLeft&#45;&gt;right -->
<g id="edge4" class="edge">
<title>Distance To Obstacle UpLeft&#45;&gt;right</title>
<path fill="none" stroke="green" stroke-width="0.25" d="M190.41,-469.66C193.34,-458.41 198.56,-438.33 203.03,-421.15"/>
<polygon fill="green" stroke="green" stroke-width="0.25" points="206.32,-422.38 205.45,-411.82 199.55,-420.62 206.32,-422.38"/>
</g>
<!-- 17731 -->
<g id="node19" class="node">
<title>17731</title>
<ellipse fill="white" stroke="black" cx="329.12" cy="-389.01" rx="27.22" ry="27.22"/>
<text text-anchor="middle" x="329.12" y="-386.09" font-family="Times New Roman,serif" font-size="9.00">17731</text>
</g>
<!-- Distance To Obstacle UpLeft&#45;&gt;17731 -->
<g id="edge8" class="edge">
<title>Distance To Obstacle UpLeft&#45;&gt;17731</title>
<path fill="none" stroke="red" stroke-width="0.11" d="M202.42,-469.49C224.66,-455.54 268.07,-428.31 297.83,-409.65"/>
<polygon fill="red" stroke="red" stroke-width="0.11" points="299.45,-412.76 306.06,-404.48 295.73,-406.83 299.45,-412.76"/>
</g>
<!-- Distance To Obstacle UpRight -->
<g id="node3" class="node">
<title>Distance To Obstacle UpRight</title>
<polygon fill="lightgray" stroke="black" points="539,-489.08 411.25,-489.08 411.25,-469.83 539,-469.83 539,-489.08"/>
<text text-anchor="middle" x="475.12" y="-476.53" font-family="Times New Roman,serif" font-size="9.00">Distance To Obstacle UpRight</text>
</g>
<!-- 24348 -->
<g id="node23" class="node">
<title>24348</title>
<ellipse fill="white" stroke="black" cx="447.12" cy="-389.01" rx="27.22" ry="27.22"/>
<text text-anchor="middle" x="447.12" y="-386.09" font-family="Times New Roman,serif" font-size="9.00">24348</text>
</g>
<!-- Distance To Obstacle UpRight&#45;&gt;24348 -->
<g id="edge11" class="edge">
<title>Distance To Obstacle UpRight&#45;&gt;24348</title>
<path fill="none" stroke="green" stroke-width="0.35" d="M472.34,-469.66C469.04,-459.23 463.34,-441.24 458.2,-424.99"/>
<polygon fill="green" stroke="green" stroke-width="0.35" points="461.61,-424.16 455.25,-415.69 454.93,-426.28 461.61,-424.16"/>
</g>
<!-- 24139 -->
<g id="node24" class="node">
<title>24139</title>
<ellipse fill="white" stroke="black" cx="474.12" cy="-208.12" rx="27.22" ry="27.22"/>
<text text-anchor="middle" x="474.12" y="-205.19" font-family="Times New Roman,serif" font-size="9.00">24139</text>
</g>
<!-- Distance To Obstacle UpRight&#45;&gt;24139 -->
<g id="edge5" class="edge">
<title>Distance To Obstacle UpRight&#45;&gt;24139</title>
<path fill="none" stroke="green" stroke-width="0.33" d="M476.62,-469.63C478.58,-457.6 481.9,-435.37 483.12,-416.24 487.24,-351.97 487.75,-335.57 483.12,-271.34 482.52,-263 481.48,-254.07 480.3,-245.66"/>
<polygon fill="green" stroke="green" stroke-width="0.33" points="483.78,-245.24 478.85,-235.87 476.86,-246.27 483.78,-245.24"/>
</g>
<!-- Distance To Obstacle Down -->
<g id="node4" class="node">
<title>Distance To Obstacle Down</title>
<polygon fill="lightgray" stroke="black" points="648.5,-308.19 529.75,-308.19 529.75,-288.94 648.5,-288.94 648.5,-308.19"/>
<text text-anchor="middle" x="589.12" y="-295.64" font-family="Times New Roman,serif" font-size="9.00">Distance To Obstacle Down</text>
</g>
<!-- down -->
<g id="node17" class="node">
<title>down</title>
<ellipse fill="lightblue" stroke="black" cx="567.12" cy="-208.12" rx="25.63" ry="25.63"/>
<text text-anchor="middle" x="567.12" y="-205.19" font-family="Times New Roman,serif" font-size="9.00">down</text>
</g>
<!-- Distance To Obstacle Down&#45;&gt;down -->
<g id="edge1" class="edge">
<title>Distance To Obstacle Down&#45;&gt;down</title>
<path fill="none" stroke="red" stroke-width="0.59" d="M586.94,-288.76C584.33,-278.3 579.83,-260.19 575.77,-243.88"/>
<polygon fill="red" stroke="red" stroke-width="0.59" points="579.22,-243.26 573.41,-234.4 572.43,-244.95 579.22,-243.26"/>
</g>
<!-- Distance To Obstacle DownLeft -->
<g id="node5" class="node">
<title>Distance To Obstacle DownLeft</title>
<polygon fill="lightgray" stroke="black" points="691,-489.08 557.25,-489.08 557.25,-469.83 691,-469.83 691,-489.08"/>
<text text-anchor="middle" x="624.12" y="-476.53" font-family="Times New Roman,serif" font-size="9.00">Distance To Obstacle DownLeft</text>
</g>
<!-- Distance To Obstacle DownRight -->
<g id="node6" class="node">
<title>Distance To Obstacle DownRight</title>
<polygon fill="lightgray" stroke="black" points="847.25,-489.08 709,-489.08 709,-469.83 847.25,-469.83 847.25,-489.08"/>
<text text-anchor="middle" x="778.12" y="-476.53" font-family="Times New Roman,serif" font-size="9.00">Distance To Obstacle DownRight</text>
</g>
<!-- 23331 -->
<g id="node21" class="node">
<title>23331</title>
<ellipse fill="white" stroke="black" cx="778.12" cy="-389.01" rx="27.22" ry="27.22"/>
<text text-anchor="middle" x="778.12" y="-386.09" font-family="Times New Roman,serif" font-size="9.00">23331</text>
</g>
<!-- Distance To Obstacle DownRight&#45;&gt;23331 -->
<g id="edge3" class="edge">
<title>Distance To Obstacle DownRight&#45;&gt;23331</title>
<path fill="none" stroke="red" stroke-width="0.14" d="M778.12,-469.66C778.12,-459.62 778.12,-442.56 778.12,-426.8"/>
<polygon fill="red" stroke="red" stroke-width="0.14" points="781.63,-426.93 778.13,-416.93 774.63,-426.93 781.63,-426.93"/>
</g>
<!-- Distance To Obstacle Right -->
<g id="node7" class="node">
<title>Distance To Obstacle Right</title>
<polygon fill="lightgray" stroke="black" points="981,-489.08 865.25,-489.08 865.25,-469.83 981,-469.83 981,-489.08"/>
<text text-anchor="middle" x="923.12" y="-476.53" font-family="Times New Roman,serif" font-size="9.00">Distance To Obstacle Right</text>
</g>
<!-- Distance To Obstacle Left -->
<g id="node8" class="node">
<title>Distance To Obstacle Left</title>
<polygon fill="lightgray" stroke="black" points="1110.75,-489.08 999.5,-489.08 999.5,-469.83 1110.75,-469.83 1110.75,-489.08"/>
<text text-anchor="middle" x="1055.12" y="-476.53" font-family="Times New Roman,serif" font-size="9.00">Distance To Obstacle Left</text>
</g>
<!-- Head&#45;Tail Distance Horizontal -->
<g id="node9" class="node">
<title>Head&#45;Tail Distance Horizontal</title>
<polygon fill="lightgray" stroke="black" points="1255.62,-489.08 1128.62,-489.08 1128.62,-469.83 1255.62,-469.83 1255.62,-489.08"/>
<text text-anchor="middle" x="1192.12" y="-476.53" font-family="Times New Roman,serif" font-size="9.00">Head&#45;Tail Distance Horizontal</text>
</g>
<!-- Head&#45;Tail Distance Vertical -->
<g id="node10" class="node">
<title>Head&#45;Tail Distance Vertical</title>
<polygon fill="lightgray" stroke="black" points="1389,-489.08 1273.25,-489.08 1273.25,-469.83 1389,-469.83 1389,-489.08"/>
<text text-anchor="middle" x="1331.12" y="-476.53" font-family="Times New Roman,serif" font-size="9.00">Head&#45;Tail Distance Vertical</text>
</g>
<!-- Health -->
<g id="node11" class="node">
<title>Health</title>
<polygon fill="lightgray" stroke="black" points="1447.12,-489.08 1407.12,-489.08 1407.12,-469.83 1447.12,-469.83 1447.12,-489.08"/>
<text text-anchor="middle" x="1427.12" y="-476.53" font-family="Times New Roman,serif" font-size="9.00">Health</text>
</g>
<!-- Length -->
<g id="node12" class="node">
<title>Length</title>
<polygon fill="lightgray" stroke="black" points="381.5,-489.08 340.75,-489.08 340.75,-469.83 381.5,-469.83 381.5,-489.08"/>
<text text-anchor="middle" x="361.12" y="-476.53" font-family="Times New Roman,serif" font-size="9.00">Length</text>
</g>
<!-- Length&#45;&gt;17731 -->
<g id="edge7" class="edge">
<title>Length&#45;&gt;17731</title>
<path fill="none" stroke="green" stroke-width="0.25" d="M357.94,-469.66C354.13,-459.14 347.54,-440.9 341.61,-424.53"/>
<polygon fill="green" stroke="green" stroke-width="0.25" points="345.05,-423.75 338.36,-415.53 338.47,-426.13 345.05,-423.75"/>
</g>
<!-- Vertical Distance To Food -->
<g id="node13" class="node">
<title>Vertical Distance To Food</title>
<polygon fill="lightgray" stroke="black" points="1576.75,-489.08 1465.5,-489.08 1465.5,-469.83 1576.75,-469.83 1576.75,-489.08"/>
<text text-anchor="middle" x="1521.12" y="-476.53" font-family="Times New Roman,serif" font-size="9.00">Vertical Distance To Food</text>
</g>
<!-- Horizontal Distance To Food -->
<g id="node14" class="node">
<title>Horizontal Distance To Food</title>
<polygon fill="lightgray" stroke="black" points="1717.38,-489.08 1594.88,-489.08 1594.88,-469.83 1717.38,-469.83 1717.38,-489.08"/>
<text text-anchor="middle" x="1656.12" y="-476.53" font-family="Times New Roman,serif" font-size="9.00">Horizontal Distance To Food</text>
</g>
<!-- 22567 -->
<g id="node22" class="node">
<title>22567</title>
<ellipse fill="white" stroke="black" cx="509.12" cy="-117.67" rx="27.22" ry="27.22"/>
<text text-anchor="middle" x="509.12" y="-114.75" font-family="Times New Roman,serif" font-size="9.00">22567</text>
</g>
<!-- down&#45;&gt;22567 -->
<g id="edge13" class="edge">
<title>down&#45;&gt;22567</title>
<path fill="none" stroke="green" stroke-width="0.15" d="M553.38,-186.16C546.21,-175.22 537.3,-161.64 529.36,-149.53"/>
<polygon fill="green" stroke="green" stroke-width="0.15" points="532.32,-147.65 523.91,-141.21 526.46,-151.49 532.32,-147.65"/>
</g>
<!-- left -->
<g id="node18" class="node">
<title>left</title>
<ellipse fill="lightblue" stroke="black" cx="1762.12" cy="-389.01" rx="19.8" ry="19.8"/>
<text text-anchor="middle" x="1762.12" y="-386.09" font-family="Times New Roman,serif" font-size="9.00">left</text>
</g>
<!-- 22274 -->
<g id="node20" class="node">
<title>22274</title>
<ellipse fill="white" stroke="black" cx="295.12" cy="-479.46" rx="27.22" ry="27.22"/>
<text text-anchor="middle" x="295.12" y="-476.53" font-family="Times New Roman,serif" font-size="9.00">22274</text>
</g>
<!-- 22274&#45;&gt;right -->
<g id="edge10" class="edge">
<title>22274&#45;&gt;right</title>
<path fill="none" stroke="green" stroke-width="0.19" d="M276.9,-459.27C264.16,-445.86 247.07,-427.86 233.51,-413.58"/>
<polygon fill="green" stroke="green" stroke-width="0.19" points="236.4,-411.54 226.97,-406.7 231.32,-416.36 236.4,-411.54"/>
</g>
<!-- 18415 -->
<g id="node27" class="node">
<title>18415</title>
<ellipse fill="white" stroke="black" cx="509.12" cy="-27.22" rx="27.22" ry="27.22"/>
<text text-anchor="middle" x="509.12" y="-24.3" font-family="Times New Roman,serif" font-size="9.00">18415</text>
</g>
<!-- 22567&#45;&gt;18415 -->
<g id="edge9" class="edge">
<title>22567&#45;&gt;18415</title>
<path fill="none" stroke="red" stroke-width="0.18" d="M509.12,-90.13C509.12,-82.18 509.12,-73.3 509.12,-64.81"/>
<polygon fill="red" stroke="red" stroke-width="0.18" points="512.63,-65.01 509.13,-55.01 505.63,-65.01 512.63,-65.01"/>
</g>
<!-- 24348&#45;&gt;24139 -->
<g id="edge12" class="edge">
<title>24348&#45;&gt;24139</title>
<path fill="none" stroke="red" stroke-width="0.26" d="M431.1,-366.8C423.43,-355.32 415.07,-340.49 411.12,-325.79 404.85,-302.42 401.8,-293.67 411.12,-271.34 417.83,-255.28 430.93,-241.26 443.45,-230.61"/>
<polygon fill="red" stroke="red" stroke-width="0.26" points="445.62,-233.36 451.21,-224.36 441.23,-227.91 445.62,-233.36"/>
</g>
<!-- 24524 -->
<g id="node26" class="node">
<title>24524</title>
<ellipse fill="white" stroke="black" cx="447.12" cy="-298.57" rx="27.22" ry="27.22"/>
<text text-anchor="middle" x="447.12" y="-295.64" font-family="Times New Roman,serif" font-size="9.00">24524</text>
</g>
<!-- 24348&#45;&gt;24524 -->
<g id="edge15" class="edge">
<title>24348&#45;&gt;24524</title>
<path fill="none" stroke="green" stroke-width="0.3" d="M447.12,-361.48C447.12,-353.6 447.12,-344.84 447.12,-336.44"/>
<polygon fill="green" stroke="green" stroke-width="0.3" points="450.63,-336.54 447.13,-326.54 443.63,-336.54 450.63,-336.54"/>
</g>
<!-- 24139&#45;&gt;22567 -->
<g id="edge6" class="edge">
<title>24139&#45;&gt;22567</title>
<path fill="none" stroke="green" stroke-width="0.67" d="M483.87,-182.48C487.41,-173.55 491.47,-163.28 495.29,-153.62"/>
<polygon fill="green" stroke="green" stroke-width="0.67" points="498.51,-155.01 498.93,-144.42 492,-152.43 498.51,-155.01"/>
</g>
<!-- 21900 -->
<g id="node25" class="node">
<title>21900</title>
<ellipse fill="white" stroke="black" cx="1834.12" cy="-479.46" rx="27.22" ry="27.22"/>
<text text-anchor="middle" x="1834.12" y="-476.53" font-family="Times New Roman,serif" font-size="9.00">21900</text>
</g>
<!-- 24524&#45;&gt;24139 -->
<g id="edge16" class="edge">
<title>24524&#45;&gt;24139</title>
<path fill="none" stroke="red" stroke-width="0.14" d="M454.93,-271.98C457.57,-263.37 460.55,-253.59 463.37,-244.36"/>
<polygon fill="red" stroke="red" stroke-width="0.14" points="466.7,-245.43 466.27,-234.85 460,-243.39 466.7,-245.43"/>
</g>
<!-- 23414 -->
<g id="node28" class="node">
<title>23414</title>
<ellipse fill="white" stroke="black" cx="1906.12" cy="-479.46" rx="27.22" ry="27.22"/>
<text text-anchor="middle" x="1906.12" y="-476.53" font-family="Times New Roman,serif" font-size="9.00">23414</text>
</g>
<!-- 24025 -->
<g id="node29" class="node">
<title>24025</title>
<ellipse fill="white" stroke="black" cx="1978.12" cy="-479.46" rx="27.22" ry="27.22"/>
<text text-anchor="middle" x="1978.12" y="-476.53" font-family="Times New Roman,serif" font-size="9.00">24025</text>
</g>
<!-- 22876 -->
<g id="node30" class="node">
<title>22876</title>
<ellipse fill="white" stroke="black" cx="1762.12" cy="-479.46" rx="27.22" ry="27.22"/>
<text text-anchor="middle" x="1762.12" y="-476.53" font-family="Times New Roman,serif" font-size="9.00">22876</text>
</g>
<!-- 22876&#45;&gt;left -->
<g id="edge17" class="edge">
<title>22876&#45;&gt;left</title>
<path fill="none" stroke="red" stroke-width="0.21" d="M1762.12,-451.92C1762.12,-441.62 1762.12,-429.78 1762.12,-419.23"/>
<polygon fill="red" stroke="red" stroke-width="0.21" points="1765.63,-419.54 1762.13,-409.54 1758.63,-419.54 1765.63,-419.54"/>
</g>
<!-- 15327 -->
<g id="node31" class="node">
<title>15327</title>
<ellipse fill="white" stroke="black" cx="2050.12" cy="-479.46" rx="27.22" ry="27.22"/>
<text text-anchor="middle" x="2050.12" y="-476.53" font-family="Times New Roman,serif" font-size="9.00">15327</text>
</g>
</g>
</svg>
