<?xml version="1.0" encoding="UTF-8" standalone="no"?>
<!DOCTYPE svg PUBLIC "-//W3C//DTD SVG 1.1//EN"
 "http://www.w3.org/Graphics/SVG/1.1/DTD/svg11.dtd">
<!-- Generated by graphviz version 9.0.0 (20230911.1827)
 -->
<!-- Pages: 1 -->
<svg width="1220pt" height="325pt"
 viewBox="0.00 0.00 1220.35 325.30" xmlns="http://www.w3.org/2000/svg" xmlns:xlink="http://www.w3.org/1999/xlink">
<g id="graph0" class="graph" transform="scale(1 1) rotate(0) translate(4 321.3)">
<polygon fill="white" stroke="none" points="-4,4 -4,-321.3 1216.35,-321.3 1216.35,4 -4,4"/>
<!-- Distance To Obstacle Up -->
<g id="node1" class="node">
<title>Distance To Obstacle Up</title>
<polygon fill="lightgray" stroke="black" points="108.25,-299.7 0,-299.7 0,-280.45 108.25,-280.45 108.25,-299.7"/>
<text text-anchor="middle" x="54.12" y="-287.15" font-family="Times New Roman,serif" font-size="9.00">Distance To Obstacle Up</text>
</g>
<!-- up -->
<g id="node9" class="node">
<title>up</title>
<ellipse fill="lightblue" stroke="black" cx="54.12" cy="-199.63" rx="18.21" ry="18.21"/>
<text text-anchor="middle" x="54.12" y="-196.71" font-family="Times New Roman,serif" font-size="9.00">up</text>
</g>
<!-- Distance To Obstacle Up&#45;&gt;up -->
<g id="edge1" class="edge">
<title>Distance To Obstacle Up&#45;&gt;up</title>
<path fill="none" stroke="red" stroke-width="2.46" d="M54.12,-280.28C54.12,-269.01 54.12,-248.9 54.12,-231.7"/>
<polygon fill="red" stroke="red" stroke-width="2.46" points="57.63,-231.92 54.13,-221.92 50.63,-231.92 57.63,-231.92"/>
</g>
<!-- Distance To Obstacle UpLeft -->
<g id="node2" class="node">
<title>Distance To Obstacle UpLeft</title>
<polygon fill="lightgray" stroke="black" points="249.75,-299.7 126.5,-299.7 126.5,-280.45 249.75,-280.45 249.75,-299.7"/>
<text text-anchor="middle" x="188.12" y="-287.15" font-family="Times New Roman,serif" font-size="9.00">Distance To Obstacle UpLeft</text>
</g>
<!-- Distance To Obstacle UpRight -->
<g id="node3" class="node">
<title>Distance To Obstacle UpRight</title>
<polygon fill="lightgray" stroke="black" points="396,-299.7 268.25,-299.7 268.25,-280.45 396,-280.45 396,-299.7"/>
<text text-anchor="middle" x="332.12" y="-287.15" font-family="Times New Roman,serif" font-size="9.00">Distance To Obstacle UpRight</text>
</g>
<!-- Distance To Obstacle Down -->
<g id="node4" class="node">
<title>Distance To Obstacle Down</title>
<polygon fill="lightgray" stroke="black" points="532.5,-299.7 413.75,-299.7 413.75,-280.45 532.5,-280.45 532.5,-299.7"/>
<text text-anchor="middle" x="473.12" y="-287.15" font-family="Times New Roman,serif" font-size="9.00">Distance To Obstacle Down</text>
</g>
<!-- down -->
<g id="node11" class="node">
<title>down</title>
<ellipse fill="lightblue" stroke="black" cx="473.12" cy="-199.63" rx="25.63" ry="25.63"/>
<text text-anchor="middle" x="473.12" y="-196.71" font-family="Times New Roman,serif" font-size="9.00">down</text>
</g>
<!-- Distance To Obstacle Down&#45;&gt;down -->
<g id="edge2" class="edge">
<title>Distance To Obstacle Down&#45;&gt;down</title>
<path fill="none" stroke="red" stroke-width="1.3" d="M473.12,-280.28C473.12,-270.18 473.12,-252.97 473.12,-237.13"/>
<polygon fill="red" stroke="red" stroke-width="1.3" points="476.63,-237.38 473.13,-227.38 469.63,-237.38 476.63,-237.38"/>
</g>
<!-- Distance To Obstacle DownLeft -->
<g id="node5" class="node">
<title>Distance To Obstacle DownLeft</title>
<polygon fill="lightgray" stroke="black" points="684,-299.7 550.25,-299.7 550.25,-280.45 684,-280.45 684,-299.7"/>
<text text-anchor="middle" x="617.12" y="-287.15" font-family="Times New Roman,serif" font-size="9.00">Distance To Obstacle DownLeft</text>
</g>
<!-- Distance To Obstacle DownRight -->
<g id="node6" class="node">
<title>Distance To Obstacle DownRight</title>
<polygon fill="lightgray" stroke="black" points="840.25,-299.7 702,-299.7 702,-280.45 840.25,-280.45 840.25,-299.7"/>
<text text-anchor="middle" x="771.12" y="-287.15" font-family="Times New Roman,serif" font-size="9.00">Distance To Obstacle DownRight</text>
</g>
<!-- Distance To Obstacle Right -->
<g id="node7" class="node">
<title>Distance To Obstacle Right</title>
<polygon fill="lightgray" stroke="black" points="974,-299.7 858.25,-299.7 858.25,-280.45 974,-280.45 974,-299.7"/>
<text text-anchor="middle" x="916.12" y="-287.15" font-family="Times New Roman,serif" font-size="9.00">Distance To Obstacle Right</text>
</g>
<!-- left -->
<g id="node12" class="node">
<title>left</title>
<ellipse fill="lightblue" stroke="black" cx="916.12" cy="-199.63" rx="19.8" ry="19.8"/>
<text text-anchor="middle" x="916.12" y="-196.71" font-family="Times New Roman,serif" font-size="9.00">left</text>
</g>
<!-- Distance To Obstacle Right&#45;&gt;left -->
<g id="edge3" class="edge">
<title>Distance To Obstacle Right&#45;&gt;left</title>
<path fill="none" stroke="green" stroke-width="1.58" d="M916.12,-280.28C916.12,-269.06 916.12,-249.09 916.12,-231.95"/>
<polygon fill="green" stroke="green" stroke-width="1.58" points="919.63,-231.97 916.13,-221.97 912.63,-231.97 919.63,-231.97"/>
</g>
<!-- Distance To Obstacle Left -->
<g id="node8" class="node">
<title>Distance To Obstacle Left</title>
<polygon fill="lightgray" stroke="black" points="1103.75,-299.7 992.5,-299.7 992.5,-280.45 1103.75,-280.45 1103.75,-299.7"/>
<text text-anchor="middle" x="1048.12" y="-287.15" font-family="Times New Roman,serif" font-size="9.00">Distance To Obstacle Left</text>
</g>
<!-- right -->
<g id="node10" class="node">
<title>right</title>
<ellipse fill="lightblue" stroke="black" cx="1113.12" cy="-22.98" rx="22.98" ry="22.98"/>
<text text-anchor="middle" x="1113.12" y="-20.06" font-family="Times New Roman,serif" font-size="9.00">right</text>
</g>
<!-- 27619 -->
<g id="node13" class="node">
<title>27619</title>
<ellipse fill="white" stroke="black" cx="1113.12" cy="-199.63" rx="27.22" ry="27.22"/>
<text text-anchor="middle" x="1113.12" y="-196.71" font-family="Times New Roman,serif" font-size="9.00">27619</text>
</g>
<!-- 27382 -->
<g id="node15" class="node">
<title>27382</title>
<ellipse fill="white" stroke="black" cx="1113.12" cy="-109.19" rx="27.22" ry="27.22"/>
<text text-anchor="middle" x="1113.12" y="-106.26" font-family="Times New Roman,serif" font-size="9.00">27382</text>
</g>
<!-- 27619&#45;&gt;27382 -->
<g id="edge7" class="edge">
<title>27619&#45;&gt;27382</title>
<path fill="none" stroke="green" stroke-width="0.3" d="M1113.12,-172.1C1113.12,-164.22 1113.12,-155.46 1113.12,-147.06"/>
<polygon fill="green" stroke="green" stroke-width="0.3" points="1116.63,-147.16 1113.13,-137.16 1109.63,-147.16 1116.63,-147.16"/>
</g>
<!-- 25008 -->
<g id="node14" class="node">
<title>25008</title>
<ellipse fill="white" stroke="black" cx="1185.12" cy="-199.63" rx="27.22" ry="27.22"/>
<text text-anchor="middle" x="1185.12" y="-196.71" font-family="Times New Roman,serif" font-size="9.00">25008</text>
</g>
<!-- 27382&#45;&gt;right -->
<g id="edge5" class="edge">
<title>27382&#45;&gt;right</title>
<path fill="none" stroke="green" stroke-width="0.28" d="M1113.12,-81.54C1113.12,-73.55 1113.12,-64.69 1113.12,-56.37"/>
<polygon fill="green" stroke="green" stroke-width="0.28" points="1116.63,-56.63 1113.13,-46.63 1109.63,-56.63 1116.63,-56.63"/>
</g>
<!-- 25084 -->
<g id="node16" class="node">
<title>25084</title>
<ellipse fill="white" stroke="black" cx="1149.12" cy="-290.08" rx="27.22" ry="27.22"/>
<text text-anchor="middle" x="1149.12" y="-287.15" font-family="Times New Roman,serif" font-size="9.00">25084</text>
</g>
<!-- 25084&#45;&gt;27619 -->
<g id="edge6" class="edge">
<title>25084&#45;&gt;27619</title>
<path fill="none" stroke="green" stroke-width="0.11" d="M1139.1,-264.44C1135.34,-255.22 1131.01,-244.58 1126.98,-234.66"/>
<polygon fill="green" stroke="green" stroke-width="0.11" points="1130.3,-233.54 1123.29,-225.6 1123.81,-236.18 1130.3,-233.54"/>
</g>
<!-- 25084&#45;&gt;25008 -->
<g id="edge4" class="edge">
<title>25084&#45;&gt;25008</title>
<path fill="none" stroke="red" stroke-width="0.16" d="M1159.15,-264.44C1162.91,-255.22 1167.24,-244.58 1171.27,-234.66"/>
<polygon fill="red" stroke="red" stroke-width="0.16" points="1174.41,-236.25 1174.93,-225.67 1167.92,-233.61 1174.41,-236.25"/>
</g>
</g>
</svg>
